<?xml version="1.0" standalone="no"?>
<!DOCTYPE svg PUBLIC "-//W3C//DTD SVG 20010904//EN"
 "http://www.w3.org/TR/2001/REC-SVG-20010904/DTD/svg10.dtd">
<svg version="1.0" xmlns="http://www.w3.org/2000/svg"
 width="700.000000pt" height="700.000000pt" viewBox="0 0 700.000000 700.000000"
 preserveAspectRatio="xMidYMid meet">
<metadata>
Created by potrace 1.11, written by Peter Selinger 2001-2013
</metadata>
<g transform="translate(0.000000,700.000000) scale(0.100000,-0.100000)"
fill="#000000" stroke="none">
<path d="M910 6990 c0 -5 -18 -7 -40 -6 -22 2 -40 0 -40 -4 0 -4 -15 -10 -32
-14 -18 -3 -37 -7 -43 -9 -5 -2 -23 -7 -40 -12 -16 -4 -49 -19 -73 -32 -24
-13 -40 -18 -36 -11 4 7 -2 4 -14 -6 -12 -11 -22 -15 -22 -10 0 5 -4 4 -8 -1
-4 -6 -19 -16 -34 -24 -15 -8 -37 -22 -47 -33 -11 -10 -24 -18 -29 -18 -5 0
-21 -11 -36 -25 -15 -14 -30 -25 -33 -25 -11 0 -152 -148 -146 -154 3 -3 1 -6
-6 -6 -7 0 -9 -5 -5 -12 4 -7 3 -8 -5 -4 -6 4 -14 0 -18 -11 -3 -10 -13 -22
-20 -26 -7 -5 -11 -12 -8 -18 4 -5 1 -9 -4 -9 -6 0 -11 -7 -11 -15 0 -8 -5
-15 -11 -15 -5 0 -8 -4 -4 -9 3 -6 -2 -14 -11 -19 -9 -5 -15 -12 -15 -16 1 -3
-5 -19 -13 -35 -9 -16 -12 -31 -9 -35 4 -3 2 -6 -4 -6 -9 0 -23 -32 -28 -65 0
-5 -6 -22 -13 -38 -13 -30 -23 -72 -25 -99 -1 -10 -4 -18 -7 -18 -4 0 -8 -12
-9 -27 -5 -53 -4 -5188 1 -5228 5 -42 16 -90 25 -115 4 -8 5 -19 4 -24 -1 -4
3 -14 10 -22 6 -7 8 -18 5 -23 -4 -5 -2 -12 4 -16 6 -4 8 -11 5 -16 -4 -5 0
-12 8 -15 7 -2 14 -11 14 -19 0 -17 44 -107 56 -116 5 -3 9 -10 9 -15 1 -23
103 -156 112 -147 3 4 6 -1 6 -10 0 -9 5 -17 10 -17 6 0 10 -7 10 -15 0 -8 4
-15 8 -15 5 0 27 -17 50 -37 48 -45 51 -47 120 -96 29 -21 58 -35 64 -31 6 4
8 3 5 -2 -3 -6 14 -19 39 -30 24 -10 44 -22 44 -26 0 -4 9 -5 20 -3 11 2 20 0
20 -6 0 -5 7 -9 15 -9 8 0 15 -4 15 -9 0 -6 9 -8 20 -6 11 2 22 -1 25 -6 4 -5
10 -7 15 -4 5 3 16 -2 24 -11 10 -10 16 -11 16 -3 0 8 4 8 12 2 7 -6 21 -9 31
-8 9 2 17 0 17 -5 0 -4 14 -7 30 -6 16 1 30 -1 30 -5 0 -4 1161 -7 2580 -7
1933 0 2580 3 2580 12 0 6 5 4 10 -4 6 -10 10 -11 10 -3 0 8 9 11 22 9 13 -1
45 4 73 11 27 8 58 15 68 15 9 -1 17 3 17 9 0 5 3 8 8 7 14 -3 92 25 92 34 0
4 3 7 8 6 12 -3 52 13 52 21 0 4 6 8 13 8 14 0 100 53 105 66 2 4 8 7 13 7 5
0 17 8 27 17 30 29 76 63 84 63 4 0 7 3 6 8 -1 4 18 28 43 53 56 59 81 89 71
89 -4 0 1 5 11 11 9 5 17 17 17 24 0 8 5 15 10 15 6 0 10 7 10 15 0 8 5 15 10
15 6 0 10 6 10 14 0 7 6 19 14 25 8 7 13 21 11 31 -2 11 1 19 8 17 7 -1 11 4
9 11 -1 6 2 12 6 12 5 0 9 7 10 15 1 8 3 22 4 30 1 8 5 15 10 15 5 0 6 4 3 10
-3 5 -2 10 3 10 5 0 9 6 10 13 1 22 10 55 21 75 6 11 8 22 4 25 -3 3 -2 14 2
24 4 10 10 34 13 53 7 55 11 5164 3 5175 -3 6 -6 27 -6 48 1 20 -2 37 -5 37
-3 0 -7 10 -7 23 -1 21 -9 59 -13 65 -2 1 -4 7 -5 12 -1 6 -4 12 -5 15 -1 3
-4 10 -5 15 -1 6 -3 11 -4 13 -2 1 -5 13 -7 27 -2 13 -9 27 -15 31 -6 3 -9 8
-7 10 4 6 -55 123 -67 131 -5 4 -6 8 -2 8 8 0 -2 13 -35 51 -10 10 -18 23 -18
29 0 6 -5 10 -11 10 -5 0 -8 3 -6 8 3 4 -35 46 -84 94 -49 48 -89 84 -89 81 0
-3 -8 4 -19 15 -10 12 -21 19 -24 15 -4 -3 -9 2 -13 11 -3 9 -14 16 -24 16
-10 0 -21 7 -24 16 -3 8 -10 13 -15 10 -5 -4 -11 -3 -13 1 -5 12 -84 53 -102
53 -9 0 -16 5 -16 12 0 6 -3 8 -6 5 -4 -3 -16 -1 -28 5 -21 12 -37 17 -68 20
-10 1 -18 6 -18 11 0 4 -4 6 -9 2 -5 -3 -12 -1 -15 3 -3 5 -17 8 -31 7 -14 -2
-25 0 -25 5 0 4 -10 9 -22 10 -87 6 -5218 6 -5218 0z"/>
</g>
</svg>
